Coordinates
version=1
nRows=24
nColumns=22
inDegrees=yes

Units are S.I. units (second, meters, Newtons, ...)
If the header above contains a line with 'inDegrees', this indicates whether rotational values are in degrees (yes) or radians (no).

endheader
time	pelvis_tilt	pelvis_list	pelvis_rotation	pelvis_tx	pelvis_ty	pelvis_tz	hip_flexion_r	hip_adduction_r	hip_rotation_r	knee_angle_r	ankle_angle_r	subtalar_angle_r	hip_flexion_l	hip_adduction_l	hip_rotation_l	knee_angle_l	ankle_angle_l	subtalar_angle_l	lumbar_extension	lumbar_bending	lumbar_rotation
      0.01000000	      1.75101799	      4.12805278	    175.09890851	      0.09511162	      1.01886978	      0.94089807	      1.68131248	      2.42536722	      0.25087330	    -11.83587315	      9.16779829	      1.42812851	     -1.04645452	     -6.94176771	    -13.95342662	     -8.56760808	     11.18699099	      0.86106799	     -2.62089226	      0.34763085	     -0.18718768
      0.02000000	      1.75000497	      4.12980823	    175.09776704	      0.09497689	      1.01886633	      0.94093650	      1.67420794	      2.42483635	      0.24726406	    -11.83947294	      9.16744746	      1.42567494	     -1.05138742	     -6.94066612	    -13.95280684	     -8.57562246	     11.18816978	      0.86099950	     -2.60902226	      0.34984802	     -0.18499249
      0.03000000	      1.75051004	      4.14104194	    175.11178082	      0.09481577	      1.01885026	      0.94101906	      1.66591818	      2.43004076	      0.17035950	    -11.83885236	      9.16347936	      1.37889074	     -1.04203759	     -6.95229577	    -13.95913960	     -8.60690295	     11.22752158	      0.85932634	     -2.59523944	      0.36544192	     -0.18704235
      0.04000000	      1.75194956	      4.14295459	    175.11155578	      0.09463005	      1.01883767	      0.94107896	      1.65412137	      2.42746805	      0.14352444	    -11.83155095	      9.16583311	      1.37043218	     -1.04438989	     -6.95032207	    -13.95461947	     -8.62096391	     11.23253682	      0.85921173	     -2.57427794	      0.36858066	     -0.17230277
      0.05000000	      1.75144234	      4.14362052	    175.12418589	      0.09442491	      1.01881981	      0.94117366	      1.64720418	      2.42070913	      0.08659195	    -11.84090449	      9.17056462	      1.34838618	     -1.04450755	     -6.94699058	    -13.94832735	     -8.63990380	     11.25743419	      0.85641506	     -2.55358903	      0.37350347	     -0.18277312
      0.06000000	      1.74893156	      4.14473429	    175.12510604	      0.09420095	      1.01880838	      0.94124591	      1.63512051	      2.41680740	      0.08424788	    -11.84829889	      9.17113666	      1.34757859	     -1.05465885	     -6.94298189	    -13.94648556	     -8.65089640	     11.25818106	      0.85615673	     -2.53177132	      0.37837930	     -0.17970122
      0.07000000	      1.74685933	      4.14177692	    175.12924406	      0.09391909	      1.01878694	      0.94133329	      1.61323296	      2.40659832	      0.06172290	    -11.84080598	      9.18685324	      1.34293687	     -1.06978483	     -6.93250795	    -13.94448435	     -8.65652197	     11.27775823	      0.85252718	     -2.49995416	      0.37924301	     -0.16757851
      0.08000000	      1.74196042	      4.14239193	    175.13608104	      0.09365389	      1.01877013	      0.94141927	      1.59845729	      2.40121433	      0.06473728	    -11.85414449	      9.18781905	      1.34244700	     -1.08357482	     -6.92778104	    -13.94310135	     -8.66786309	     11.27954559	      0.85202021	     -2.47397639	      0.38461648	     -0.16658871
      0.09000000	      1.71920602	      4.12720201	    175.14203323	      0.09334861	      1.01876508	      0.94150897	      1.55562150	      2.37651392	      0.07594483	    -11.85445638	      9.23534613	      1.34067147	     -1.12697326	     -6.90051465	    -13.92948724	     -8.66294663	     11.31939180	      0.84169852	     -2.46217267	      0.37000295	     -0.16923247
      0.10000000	      1.71455230	      4.12484528	    175.14387434	      0.09304541	      1.01874544	      0.94159708	      1.52826545	      2.36645175	      0.08446694	    -11.84697215	      9.24682447	      1.34357862	     -1.15158510	     -6.88940603	    -13.93358550	     -8.65796666	     11.32816840	      0.83869359	     -2.42919701	      0.37541792	     -0.16816660
      0.11000000	      1.69125649	      4.11994164	    175.13671565	      0.09276174	      1.01875362	      0.94166598	      1.48194054	      2.35334108	      0.11994240	    -11.83984490	      9.26824241	      1.36368151	     -1.19759668	     -6.87371908	    -13.93978912	     -8.65290968	     11.34312647	      0.82981438	     -2.42208806	      0.37274004	     -0.15499470
      0.12000000	      1.69113371	      4.12031261	    175.13649002	      0.09247323	      1.01873379	      0.94176165	      1.45699822	      2.34466451	      0.12093665	    -11.82656824	      9.27491138	      1.36853025	     -1.21449167	     -6.86627482	    -13.94657773	     -8.65363345	     11.35001305	      0.82751601	     -2.38802173	      0.38319235	     -0.14961100
      0.13000000	      1.67904250	      4.12185745	    175.13019569	      0.09219375	      1.01873044	      0.94185182	      1.41406716	      2.33734082	      0.14923188	    -11.80301263	      9.28564909	      1.39742573	     -1.24621814	     -6.85797878	    -13.95901936	     -8.65263167	     11.37140328	      0.81738230	     -2.37031370	      0.39473388	     -0.14237610
      0.14000000	      1.68047647	      4.12200057	    175.12963005	      0.09191456	      1.01871022	      0.94196202	      1.38757493	      2.32758288	      0.14680951	    -11.78226558	      9.29299374	      1.40383557	     -1.26030226	     -6.84943249	    -13.96612083	     -8.65444149	     11.37932730	      0.81420382	     -2.33672647	      0.40714722	     -0.13810567
      0.15000000	      1.67974607	      4.12067039	    175.13077386	      0.09163951	      1.01869239	      0.94208617	      1.35476891	      2.31608893	      0.15300272	    -11.75369628	      9.30130670	      1.41464315	     -1.27518788	     -6.83825253	    -13.97222715	     -8.65753729	     11.39486118	      0.80805038	     -2.30704363	      0.42015512	     -0.14013637
      0.16000000	      1.67589412	      4.11850907	    175.13320585	      0.09137166	      1.01867962	      0.94222582	      1.31812703	      2.30259844	      0.16087628	    -11.72337871	      9.30914226	      1.42846984	     -1.29141603	     -6.82539822	    -13.97540705	     -8.66329703	     11.41184074	      0.79985623	     -2.28351458	      0.43383065	     -0.14467956
      0.17000000	      1.64922291	      4.11706631	    175.13998285	      0.09111481	      1.01869901	      0.94238444	      1.25690090	      2.28697169	      0.17595707	    -11.69274144	      9.31498938	      1.47147822	     -1.33110238	     -6.81013684	    -13.96823521	     -8.66848315	     11.43320124	      0.77706342	     -2.29202636	      0.44848827	     -0.15804622
      0.18000000	      1.64979990	      4.11300900	    175.14332046	      0.09085018	      1.01867976	      0.94254253	      1.22698399	      2.27114458	      0.17540283	    -11.66521650	      9.32424127	      1.47675889	     -1.34184328	     -6.79488952	    -13.97119816	     -8.67372882	     11.43977433	      0.77187784	     -2.26573596	      0.46128424	     -0.15730661
      0.19000000	      1.64440013	      4.10517499	    175.14989434	      0.09059178	      1.01866626	      0.94271697	      1.18970913	      2.25062048	      0.18707513	    -11.63537269	      9.33354439	      1.48442105	     -1.35522132	     -6.77468080	    -13.96785390	     -8.68409829	     11.45627845	      0.76225903	     -2.24972334	      0.47017975	     -0.16740149
      0.20000000	      1.63491849	      4.09792828	    175.15612981	      0.09033159	      1.01865804	      0.94290415	      1.14873011	      2.22966540	      0.19661847	    -11.60655692	      9.34337286	      1.49337035	     -1.37347053	     -6.75378176	    -13.96138705	     -8.69430468	     11.47464199	      0.74953249	     -2.24178543	      0.47979425	     -0.17542908
      0.21000000	      1.60522604	      4.09304038	    175.16540195	      0.09006825	      1.01867779	      0.94311451	      1.08877060	      2.20802059	      0.20405072	    -11.58401001	      9.35203374	      1.51431846	     -1.41711600	     -6.73132280	    -13.94819748	     -8.69682576	     11.49273142	      0.72198048	     -2.26288885	      0.49144760	     -0.18879043
      0.22000000	      1.60775263	      4.09061689	    175.16864956	      0.08978085	      1.01865432	      0.94331710	      1.06115594	      2.19200870	      0.20375178	    -11.55911176	      9.35992299	      1.51671192	     -1.42716721	     -6.71578214	    -13.94987524	     -8.70285801	     11.50118285	      0.71637862	     -2.24378783	      0.50610887	     -0.18557805
      0.23000000	      1.60684754	      4.08588314	    175.17401731	      0.08948957	      1.01863146	      0.94354325	      1.02966682	      2.17174395	      0.20980090	    -11.53395113	      9.36821370	      1.52078726	     -1.44138765	     -6.69595850	    -13.94904312	     -8.70742822	     11.52167342	      0.70813707	     -2.23274354	      0.51930058	     -0.19194734
      0.24000000	      1.60463287	      4.08117827	    175.18044108	      0.08919147	      1.01861212	      0.94378021	      0.99760878	      2.15011809	      0.21230578	    -11.51115383	      9.37653538	      1.52763916	     -1.45967144	     -6.67569707	    -13.94811669	     -8.70742486	     11.54326596	      0.70032322	     -2.22695251	      0.53152600	     -0.19648587
